<?xml version="1.0" standalone="no"?>
<!DOCTYPE svg PUBLIC "-//W3C//DTD SVG 20010904//EN"
 "http://www.w3.org/TR/2001/REC-SVG-20010904/DTD/svg10.dtd">
<svg version="1.0" xmlns="http://www.w3.org/2000/svg"
 width="28.000000pt" height="28.000000pt" viewBox="0 0 28.000000 28.000000"
 preserveAspectRatio="xMidYMid meet">
<metadata>
Created by potrace 1.16, written by Peter Selinger 2001-2019
</metadata>
<g transform="translate(0.000000,28.000000) scale(0.004667,-0.004667)"
fill="#000000" stroke="none">
<path d="M2850 5827 c-3 -3 -38 -7 -79 -11 -365 -31 -710 -130 -1051 -301
-534 -268 -1021 -767 -1262 -1295 -22 -47 -48 -103 -58 -125 -38 -78 -106
-279 -134 -396 -36 -146 -68 -329 -81 -473 -5 -47 -4 -404 0 -456 29 -337 120
-677 260 -976 54 -117 167 -311 241 -419 187 -269 510 -585 748 -732 38 -24
72 -46 75 -50 20 -27 337 -182 501 -245 158 -61 277 -95 440 -127 105 -21 119
-23 240 -40 121 -17 561 -11 700 10 526 78 983 274 1382 591 573 456 960 1145
1043 1856 20 168 20 546 0 714 -34 289 -117 574 -250 855 -152 319 -354 598
-611 842 -440 417 -973 669 -1599 756 -108 15 -494 32 -505 22z m495 -322
c164 -35 280 -99 387 -213 79 -84 134 -178 167 -287 21 -72 24 -97 23 -254 -1
-96 1 -177 3 -182 6 -9 145 80 145 92 0 5 8 9 19 9 17 0 79 -81 74 -98 -1 -4
3 -13 9 -19 6 -7 7 -13 3 -13 -4 0 -2 -6 4 -14 6 -7 14 -40 17 -71 3 -32 11
-64 18 -70 6 -7 65 -29 131 -49 66 -21 131 -41 145 -46 14 -5 93 -30 175 -55
83 -26 164 -51 180 -56 17 -5 68 -21 115 -35 288 -87 327 -129 232 -244 -43
-51 -170 -140 -276 -193 -178 -89 -551 -173 -746 -169 -149 4 -280 56 -435
176 -170 131 -241 162 -358 153 -146 -11 -338 -92 -558 -235 -25 -17 -74 -37
-109 -46 -35 -9 -69 -21 -75 -26 -41 -34 -296 -63 -530 -61 l-160 1 -135 46
c-268 90 -448 198 -614 368 -184 189 -258 428 -175 563 24 39 -4 34 419 78
446 47 618 65 660 70 19 2 87 9 150 16 63 6 118 16 121 21 4 6 10 34 13 62 13
95 55 295 75 350 56 161 195 312 354 387 118 55 197 70 337 64 69 -3 156 -12
195 -20z m-390 -2137 c4 -3 -1 -18 -11 -33 -21 -32 -14 -132 12 -188 10 -20
15 -40 11 -43 -3 -3 -40 -7 -82 -7 -84 0 -225 38 -225 61 0 29 63 159 93 190
32 33 32 34 114 30 45 -2 84 -6 88 -10z m-899 -47 c-28 -53 -30 -104 -8 -155
l21 -46 -26 0 c-43 0 -111 39 -150 86 -19 25 -33 47 -30 50 13 13 174 92 190
93 16 1 16 -1 3 -28z"/>
<path d="M2371 4591 c-23 -103 -28 -151 -17 -160 34 -28 265 -115 396 -150
131 -34 216 -48 343 -57 l87 -7 -6 54 c-4 30 -7 83 -8 119 l-1 64 -35 2 c-20
1 -49 4 -65 7 -17 3 -48 8 -70 11 -77 12 -90 15 -90 16 0 1 -32 8 -65 13 -8 1
-21 6 -27 10 -7 5 -13 6 -13 3 0 -2 -15 0 -32 5 -18 5 -44 11 -58 14 -59 11
-70 14 -89 25 -12 6 -21 8 -21 6 0 -3 -49 12 -109 33 l-110 38 -10 -46z"/>
<path d="M3822 4494 c-30 -18 -42 -31 -37 -42 3 -8 8 -41 11 -72 6 -69 -11
-90 -82 -98 l-46 -5 7 32 c5 24 3 31 -8 31 -8 0 -20 7 -27 15 -20 24 2 38 60
40 32 1 57 8 67 18 24 24 4 41 -44 39 -27 -1 -42 4 -53 18 -14 18 -17 18 -40
5 -53 -30 -64 -32 -98 -18 -34 14 -59 9 -33 -6 10 -6 9 -12 -4 -25 -9 -9 -19
-16 -23 -17 -4 0 -16 -2 -27 -4 -11 -2 -44 -6 -74 -8 -64 -7 -72 -12 -38 -28
17 -8 45 -9 84 -3 86 11 99 10 107 -12 3 -9 -4 -25 -19 -40 -20 -20 -22 -26
-10 -30 8 -4 21 -4 29 -1 22 9 26 -16 9 -51 -15 -30 -88 -98 -130 -120 -35
-19 -61 -14 -129 24 -38 21 -64 31 -64 23 0 -20 70 -140 85 -146 20 -7 147 64
192 107 21 20 55 55 75 78 30 35 43 42 72 42 20 0 67 5 105 12 l68 12 50 -37
c61 -44 163 -94 235 -113 48 -12 54 -12 65 3 17 23 45 121 41 145 -3 18 -10
14 -58 -31 -52 -49 -57 -52 -97 -47 -110 14 -256 136 -163 136 38 0 38 15 1
35 -29 15 -34 36 -14 56 6 6 35 13 64 15 73 5 84 8 103 23 23 19 12 29 -26 25
-134 -17 -148 -17 -154 0 -3 9 -1 23 6 31 17 20 12 19 -38 -11z"/>
</g>
</svg>
